<?xml version="1.0" standalone="no"?>
<!DOCTYPE svg PUBLIC "-//W3C//DTD SVG 20010904//EN"
 "http://www.w3.org/TR/2001/REC-SVG-20010904/DTD/svg10.dtd">
<svg version="1.0" xmlns="http://www.w3.org/2000/svg"
 width="76.000000pt" height="43.000000pt" viewBox="0 0 76.000000 43.000000"
 preserveAspectRatio="xMidYMid meet">

<g transform="translate(0.000000,43.000000) scale(0.100000,-0.100000)"
fill="#000000" stroke="none">
<path d="M320 402 c0 -4 18 -26 40 -47 41 -40 57 -39 18 2 -12 13 -19 25 -17
27 2 3 47 6 99 7 l95 2 3 -102 c1 -55 -1 -101 -5 -101 -3 0 -17 10 -30 22
l-23 22 -55 -54 c-29 -30 -52 -56 -49 -59 2 -3 27 17 54 44 l50 49 28 -27 c15
-15 31 -27 35 -27 4 0 7 56 7 125 l0 125 -125 0 c-69 0 -125 -4 -125 -8z"/>
<path d="M246 280 l-58 -60 -26 30 c-15 17 -30 30 -34 30 -5 0 -8 -54 -8 -120
0 -89 3 -120 13 -121 38 -1 222 3 225 6 2 1 -9 15 -24 30 l-27 27 39 41 c22
22 48 49 59 58 20 18 19 19 -40 78 l-60 60 -59 -59z"/>
</g>
</svg>
